<!-- Generator: Adobe Illustrator 27.3.1, SVG Export Plug-In . SVG Version: 6.00 Build 0)  --><svg version="1.1" id="Layer_1" xmlns="http://www.w3.org/2000/svg" xmlns:xlink="http://www.w3.org/1999/xlink" x="0px" y="0px" viewBox="0 0 1000 1000" style="enable-background:new 0 0 1000 1000;" xml:space="preserve" height="100%" width="100%"><style type="text/css">	.st0{display:none;fill:#FFFFFF;}	.st1{fill:#ACACAC;}</style><path class="st0" d="M428.5,470.8c-1.4-5.2-5.5-9.3-10.7-10.7c-9.5-2.5-47.5-2.5-47.5-2.5s-38,0-47.5,2.5  c-5.2,1.4-9.3,5.5-10.7,10.7c-2.5,9.5-2.5,29.2-2.5,29.2s0,19.8,2.5,29.2c1.4,5.2,5.5,9.3,10.7,10.7c9.5,2.5,47.5,2.5,47.5,2.5  s38,0,47.5-2.5c5.2-1.4,9.3-5.5,10.7-10.7c2.5-9.5,2.5-29.2,2.5-29.2S431,480.2,428.5,470.8z M358.1,518.2v-36.4l31.6,18.2  L358.1,518.2z" /><path class="st0" d="M456.8,512.3l-14.1-48.7h12l5.4,24.8l0.9,4c0.5,2.1,1,4.1,1.4,6.2h0.4l2.3-10.3l5.8-24.7h11.8l-13.9,48.7v24.2  h-12.1V512.3z" /><path class="st0" d="M485.9,534.9c-2.4-1.6-4.1-4.1-5.1-7.6c-1-3.4-1.5-8-1.5-13.6V506c0-5.7,0.6-10.3,1.7-13.8c1.2-3.5,3-6,5.4-7.6  c2.5-1.6,5.7-2.4,9.7-2.4c3.9,0,7.1,0.8,9.5,2.4c2.4,1.6,4.1,4.2,5.2,7.6c1.1,3.4,1.7,8,1.7,13.8v7.7c0,5.7-0.5,10.2-1.6,13.7  c-1.1,3.4-2.8,6-5.2,7.6c-2.4,1.6-5.7,2.4-9.8,2.4C491.6,537.3,488.3,536.5,485.9,534.9z M499.3,526.5c0.7-1.7,1-4.6,1-8.5v-16.6  c0-3.8-0.3-6.6-1-8.4c-0.7-1.8-1.8-2.6-3.5-2.6c-1.6,0-2.8,0.9-3.4,2.6c-0.7,1.8-1,4.6-1,8.4V518c0,3.9,0.3,6.8,1,8.5  c0.6,1.7,1.8,2.6,3.5,2.6C497.5,529.1,498.7,528.3,499.3,526.5z" /><path class="st0" d="M550.9,483.2v53.3h-9.4l-1-6.5h-0.3c-2.4,4.9-6.1,7.4-11.1,7.4c-3.6,0-6.2-1.1-7.9-3.4  c-1.7-2.3-2.6-5.9-2.6-10.9v-39.8h12v39.1c0,2.3,0.3,4,0.8,5c0.5,1,1.4,1.6,2.6,1.6c1,0,2-0.3,2.9-1c0.9-0.7,1.6-1.5,2-2.6v-42  H550.9z" /><path class="st0" d="M583.6,473.3h-11.6v63.2h-12.2v-63.2h-11.6v-9.7h35.4V473.3z" /><path class="st0" d="M612.7,483.2v53.3h-9.4l-1-6.5h-0.3c-2.4,4.9-6.1,7.4-11.1,7.4c-3.6,0-6.2-1.1-7.9-3.4  c-1.7-2.3-2.6-5.9-2.6-10.9v-39.8h12v39.1c0,2.3,0.3,4,0.8,5c0.5,1,1.4,1.6,2.6,1.6c1,0,2-0.3,2.9-1c0.9-0.7,1.6-1.5,2-2.6v-42  H612.7z" /><path class="st0" d="M670.3,513.9v2.7c0,3.4,0.1,6,0.3,7.7c0.2,1.7,0.6,3,1.3,3.7c0.6,0.8,1.6,1.2,3,1.2c1.8,0,3-0.7,3.7-2.1  c0.7-1.4,1-3.7,1.1-7l10.3,0.6c0.1,0.5,0.1,1.1,0.1,1.9c0,4.9-1.3,8.6-4,11c-2.7,2.4-6.5,3.6-11.4,3.6c-5.9,0-10-1.9-12.4-5.6  c-2.4-3.7-3.6-9.4-3.6-17.2v-9.3c0-8,1.2-13.8,3.7-17.5c2.5-3.7,6.7-5.5,12.6-5.5c4.1,0,7.3,0.8,9.5,2.3c2.2,1.5,3.7,3.9,4.6,7  c0.9,3.2,1.3,7.6,1.3,13.2v9.1H670.3z M671.8,491.5c-0.6,0.8-1,2-1.2,3.7c-0.2,1.7-0.3,4.3-0.3,7.8v3.8h8.8V503c0-3.4-0.1-6-0.3-7.8  c-0.2-1.8-0.7-3-1.3-3.7c-0.6-0.7-1.6-1.1-2.8-1.1C673.3,490.4,672.4,490.7,671.8,491.5z" /><path class="st0" d="M652.4,491.8c-0.7-3.4-1.9-5.8-3.5-7.3c-1.6-1.5-3.9-2.3-6.7-2.3c-2.2,0-4.3,0.6-6.2,1.9  c-1.9,1.2-3.4,2.9-4.4,4.9h-0.1l0-28.1h-11.3v75.6h9.6l1.2-5h0.3c0.9,1.8,2.3,3.2,4.2,4.3c1.9,1,3.9,1.6,6.2,1.6  c4.1,0,7-1.9,8.9-5.6c1.9-3.7,2.9-9.6,2.9-17.5v-8.4C653.5,499.8,653.1,495.1,652.4,491.8z M641.4,513.5c0,3.9-0.2,6.9-0.5,9.1  c-0.3,2.2-0.9,3.8-1.6,4.7c-0.8,0.9-1.8,1.4-3,1.4c-1,0-1.9-0.2-2.7-0.7c-0.8-0.5-1.5-1.2-2-2.1v-30.2c0.4-1.4,1.1-2.6,2.1-3.6  c1-0.9,2.1-1.4,3.2-1.4c1.2,0,2.2,0.5,2.8,1.4c0.7,1,1.1,2.6,1.4,4.8c0.3,2.3,0.4,5.5,0.4,9.6V513.5z" /><path class="st1" d="M859.3,319.5c-8.6-32.3-34-57.7-66.3-66.3c-58.5-15.7-293-15.7-293-15.7s-234.5,0-293,15.7  c-32.3,8.6-57.7,34-66.3,66.3C125,378,125,500,125,500s0,122,15.7,180.5c8.6,32.3,34,57.7,66.3,66.3c58.5,15.7,293,15.7,293,15.7  s234.5,0,293-15.7c32.3-8.6,57.7-34,66.3-66.3C875,622,875,500,875,500S875,378,859.3,319.5z M425,612.5v-225L619.8,500L425,612.5z" /></svg>