<!-- Generator: Adobe Illustrator 27.3.1, SVG Export Plug-In . SVG Version: 6.00 Build 0)  --><svg version="1.1" id="Layer_1" xmlns="http://www.w3.org/2000/svg" xmlns:xlink="http://www.w3.org/1999/xlink" x="0px" y="0px" viewBox="0 0 1000 1000" style="enable-background:new 0 0 1000 1000;" xml:space="preserve" height="100%" width="100%"><style type="text/css">	.st1{fill:#ACACAC;}</style><g>	<path class="st1" d="M344.7,127.6c-39.9,1.9-67.1,8.3-91,17.6c-24.7,9.6-45.5,22.5-66.3,43.4s-33.6,41.8-43.1,66.5   c-9.2,23.9-15.5,51.1-17.3,91.1c-1.8,39.9-2.2,52.8-2,154.6s0.6,114.6,2.6,154.6c1.9,39.9,8.3,67.1,17.6,91   c9.6,24.7,22.5,45.5,43.4,66.3s41.8,33.6,66.5,43.1c23.9,9.2,51.1,15.5,91,17.3s52.8,2.2,154.6,2s114.6-0.6,154.6-2.5   c40-1.9,67.1-8.3,90.9-17.6c24.7-9.6,45.6-22.5,66.3-43.4c20.8-20.9,33.6-41.8,43.1-66.5c9.2-23.9,15.5-51.1,17.3-91   c1.7-40,2.2-52.8,2-154.6s-0.7-114.6-2.6-154.6s-8.3-67.1-17.6-91c-9.6-24.7-22.5-45.5-43.4-66.3s-41.8-33.6-66.5-43.1   c-23.9-9.2-51.1-15.5-91-17.3c-39.9-1.7-52.8-2.2-154.6-2C397.4,125.2,384.7,125.7,344.7,127.6 M349.1,805.5   c-36.6-1.6-56.4-7.7-69.6-12.8c-17.5-6.8-30-14.9-43.2-28s-21.3-25.6-28.1-43.1c-5.1-13.2-11.3-33.1-13-69.6   c-1.9-39.5-2.3-51.4-2.5-151.5s0.2-112,1.9-151.5c1.6-36.5,7.7-56.4,12.8-69.6c6.8-17.5,14.9-30,28-43.2   c13.1-13.2,25.6-21.3,43.1-28.1c13.2-5.2,33-11.3,69.6-13c39.5-1.9,51.4-2.3,151.5-2.5s112,0.2,151.5,1.9   c36.5,1.6,56.4,7.6,69.6,12.8c17.5,6.8,30,14.9,43.2,28c13.2,13.1,21.3,25.6,28.1,43.1c5.2,13.2,11.3,33,13,69.6   c1.9,39.5,2.3,51.4,2.5,151.5s-0.2,112-1.9,151.5c-1.6,36.6-7.7,56.4-12.8,69.7c-6.8,17.5-14.9,30-28,43.2   c-13.1,13.2-25.6,21.3-43.1,28.1c-13.2,5.2-33.1,11.3-69.6,13c-39.5,1.9-51.4,2.2-151.5,2.5C400.4,807.7,388.6,807.2,349.1,805.5    M654.8,299.6c0,24.9,20.2,45,45.1,44.9c24.9,0,45-20.2,44.9-45.1c0-24.9-20.2-45-45.1-44.9c0,0,0,0,0,0   C674.8,254.5,654.7,274.7,654.8,299.6 M307.5,500.4c0.2,106.4,86.6,192.4,192.9,192.2S692.8,606,692.6,499.6S606,307.2,499.6,307.4   C393.3,307.7,307.3,394,307.5,500.4 M375,500.2c-0.1-69,55.7-125.1,124.8-125.3c69-0.1,125.1,55.7,125.3,124.8   c0.1,69-55.7,125.1-124.8,125.3C431.2,625.1,375.1,569.3,375,500.2C375,500.3,375,500.2,375,500.2" /></g></svg>